Coordinates
version=1
nRows=16
nColumns=36
inDegrees=yes

Units are S.I. units (second, meters, Newtons, ...)
If the header above contains a line with 'inDegrees', this indicates whether rotational values are in degrees (yes) or radians (no).

endheader
time	pelvis_tilt	pelvis_list	pelvis_rotation	pelvis_tx	pelvis_ty	pelvis_tz	hip_flexion_r	hip_adduction_r	hip_rotation_r	knee_angle_r	knee_angle_r_beta	ankle_angle_r	subtalar_angle_r	mtp_angle_r	hip_flexion_l	hip_adduction_l	hip_rotation_l	knee_angle_l	knee_angle_l_beta	ankle_angle_l	subtalar_angle_l	mtp_angle_l	lumbar_extension	lumbar_bending	lumbar_rotation	arm_flex_r	arm_add_r	arm_rot_r	elbow_flex_r	pro_sup_r	arm_flex_l	arm_add_l	arm_rot_l	elbow_flex_l	pro_sup_l
      2.33333330	    -18.53286277	     -2.22770846	     -5.82338850	      1.34865196	      1.27908415	      0.11914358	     27.81328888	     -2.53410369	     -1.98431140	      5.34691270	      0.09332123	    -20.31155308	      1.35283453	     -7.49999987	     28.90243414	    -10.31048710	      2.50214385	     11.55884167	      0.20173984	    -23.55137409	     -1.83888184	     -7.49999987	     -5.27728181	     -1.86552686	      2.87301775	      8.82278471	    -30.68254650	     -1.59179330	    103.49532853	     77.27295775	      6.24695906	    -43.10518994	     -2.68537328	    102.06554261	     93.09172902
      2.35000000	    -18.22968698	     -2.76038909	     -6.31667627	      1.36704348	      1.24515722	      0.11655204	     27.65156907	     -1.70308126	     -1.57307238	      3.25064204	      0.05673441	    -21.78223543	      1.27454417	     -7.49999987	     28.79006252	    -11.47021355	      2.75271526	      8.53620217	      0.14898483	    -25.52554568	     -2.08661488	     -7.49999987	     -4.64676525	     -1.61533192	      3.28872670	      6.78616424	    -29.16938369	     -0.60331583	     97.52577506	     78.23756726	      5.00485580	    -41.03706546	     -3.44640111	     95.68194073	     93.48452872
      2.36666670	    -17.57224808	     -3.05615333	     -6.02239224	      1.38440936	      1.22561923	      0.11321441	     27.25693092	     -1.56529180	     -1.08212528	      1.55739855	      0.02718173	    -22.93792639	      1.06877492	     -7.49999987	     29.26036398	    -11.90041267	      3.01551056	      6.42440248	      0.11212698	    -27.33487191	     -2.62320777	     -7.49999987	     -5.21008349	     -1.64052461	      3.32403961	      3.62459467	    -26.87386263	     -1.16830211	     91.18274667	     78.44699778	      3.13662958	    -37.27489286	     -4.59836985	     89.38348145	     93.73088146
      2.38333330	    -16.76507969	     -3.21415879	     -5.85969630	      1.39285074	      1.19920621	      0.11482343	     27.63770229	     -1.54310548	     -1.16342339	      1.18908402	      0.02075343	    -23.70706388	      0.50890224	     -7.49999987	     30.35215481	    -12.17544441	      3.10416871	      5.52363413	      0.09640560	    -29.21281971	     -3.12679236	     -7.49999987	     -6.09644368	     -1.74963178	      3.00377918	      2.79349704	    -25.38202904	      0.38972493	     83.90232940	     80.10603780	      1.97711906	    -34.72522456	     -4.53932226	     83.06120233	     95.26806343
      2.40000000	    -15.78782728	     -3.62089248	     -5.27994771	      1.40369199	      1.16294950	      0.12001590	     28.04007195	     -1.30070623	     -1.48867343	      1.15736730	      0.02019987	    -24.07735308	     -0.30502393	     -7.49999987	     31.45559055	    -12.37917782	      3.78912027	      4.95332412	      0.08645181	    -30.17778743	     -3.79338862	     -7.49999987	     -8.26465200	     -1.69243216	      2.64219782	      1.62926502	    -23.59953613	      0.06250492	     77.84601135	     79.72257920	      1.35729349	    -32.38869447	     -5.14208291	     77.81693278	     94.92636752
      2.41666670	    -15.01016702	     -4.23436469	     -4.90602333	      1.42953866	      1.11807847	      0.12982444	     28.51172970	     -0.66867529	     -1.73698660	      1.74832790	      0.03051408	    -24.07537522	     -1.84982562	     -7.49999987	     32.81363999	    -13.02844492	      3.77271878	      5.56406584	      0.09711127	    -30.80839230	     -5.05528350	     -7.49999987	     -9.06152621	     -1.45632329	      2.60517816	      0.09257588	    -22.20900854	      1.34228196	     72.66963253	     78.98214567	     -0.03675548	    -30.81864683	     -5.36846171	     73.71971724	     94.45331270
      2.43333330	    -13.55749343	     -4.70177984	     -4.58148613	      1.44567514	      1.07959594	      0.11999826	     28.39856659	     -0.50157042	     -2.62529024	      2.96041696	      0.05166902	    -24.75290419	     -2.65281777	     -7.49999987	     33.53932640	    -13.28488446	      3.23855075	      7.03115160	      0.12271675	    -31.94662211	     -6.33078899	     -7.49999987	    -10.51498458	     -1.07835703	      2.57664876	     -0.47073267	    -21.44844093	      2.62050645	     67.62271927	     76.59276944	     -1.01758895	    -28.46469118	     -5.66215428	     69.99159884	     92.26746577
      2.45000000	    -12.27311727	     -5.15991296	     -4.21442951	      1.45723034	      1.03812548	      0.12515264	     28.70362933	     -0.23891736	     -2.56595663	      5.34595354	      0.09330449	    -24.89204980	     -3.96186738	     -7.49999987	     34.38507550	    -13.38926334	      3.37637281	      9.21100975	      0.16076245	    -31.56290352	     -6.98266603	     -7.49999987	    -11.72497129	     -0.79152726	      2.69497468	     -0.15750236	    -20.26126299	      3.64372781	     63.54892363	     75.55954908	     -1.09139524	    -26.37620389	     -5.85628150	     66.56023854	     91.48439346
      2.46666670	    -11.49837318	     -5.79922630	     -4.14626529	      1.47544939	      0.99227394	      0.13634899	     30.52088141	      0.43586538	     -1.94752458	      9.93052547	      0.17332037	    -22.16043639	     -6.12671133	     -7.49999987	     36.70918379	    -13.98613543	      3.92199458	     14.49326011	      0.25295511	    -27.76097470	     -8.86037196	     -7.49999987	    -13.61522335	     -0.47721551	      2.90180222	      0.21586467	    -18.58388390	      4.05570763	     61.51168495	     74.53144358	     -0.76465544	    -24.63090890	     -6.10201769	     64.93461276	     90.02297801
      2.48333330	    -11.47250747	     -5.77333594	     -4.19502390	      1.48622827	      0.95188086	      0.13614713	     34.80621002	      0.49113414	     -0.60347794	     19.09761683	      0.33331629	    -14.89126810	     -9.36018792	     -7.49999987	     41.11053499	    -13.98989227	      3.65347959	     24.51538072	      0.42787411	    -17.74957359	    -10.78218495	     -7.49999987	    -15.21396081	     -0.72127854	      2.87632665	      2.36937311	    -17.45402668	      6.31661322	     59.57324430	     73.97739358	     -0.67072947	    -22.76800573	     -7.42890770	     64.23872138	     93.13199084
      2.50000000	    -12.11605580	     -5.23510783	     -4.51000108	      1.50954400	      0.91754991	      0.12626782	     40.40349624	      0.25443156	      0.91324908	     30.96500627	      0.54044131	     -5.83147646	    -13.86799789	     -7.49999987	     46.08100998	    -13.55901628	      3.81143413	     36.24733977	      0.63263542	     -4.81468381	    -11.85787836	     -7.49999987	    -15.63383522	     -1.15447025	      3.71035172	      4.44950722	    -16.37929680	      7.06462491	     57.83333614	     73.60542177	      1.55663013	    -20.47484862	     -5.35089648	     62.02397102	     91.93820312
      2.51666670	    -13.53329944	     -4.28501446	     -4.52502000	      1.51062570	      0.87700420	      0.13030071	     49.01837442	      0.00877746	      3.13018716	     45.75357275	      0.79855049	      3.42316587	    -16.60100494	     -7.49999987	     54.39281908	    -12.89424448	      4.33220518	     50.12558329	      0.87485647	      6.79239200	    -11.61474938	     -7.49999987	    -16.63870967	     -2.58422338	      4.15635405	      6.98756053	    -15.05153647	      6.47759524	     59.71815461	     74.94061136	      4.95772864	    -19.67359091	     -2.02274877	     62.80804480	     91.41320656
      2.53333330	    -13.86385863	     -3.25570929	     -3.88221799	      1.51248147	      0.86026190	      0.12960208	     54.89053455	     -0.54242644	      4.56073493	     57.17427528	      0.99787935	     10.28710107	    -17.51211112	     -7.49999987	     60.01986938	    -11.77163479	      4.39116403	     60.43606554	      1.05480833	     14.39765930	    -11.10381832	     -7.49999987	    -19.82297558	     -3.93256416	      3.42504859	     12.44861150	    -13.90206742	      7.48434137	     62.22834088	     75.29694752	     10.21256373	    -18.85797070	      0.49518312	     65.09789899	     91.24450288
      2.55000000	    -14.71293255	     -2.86048293	     -3.22702292	      1.51721172	      0.83364720	      0.13187091	     59.69183943	     -0.73800422	      5.22258871	     65.52465670	      1.14362100	     15.99689744	    -16.88173071	     -7.49999987	     64.99220151	    -11.25826746	      4.55035041	     67.92676912	      1.18554577	     18.68227271	    -11.19535346	     -7.49999987	    -22.88258059	     -4.87192599	      4.53225445	     17.70854068	    -13.57993995	      7.60706542	     67.32913458	     79.18051537	     19.00721845	    -17.82819231	      8.10413279	     66.54548157	     90.81157093
      2.56666670	    -16.65051234	     -2.58194584	     -2.71205942	      1.51934613	      0.79568007	      0.13669447	     65.69143109	     -1.15470766	      5.28451548	     73.32398666	      1.27974499	     21.14381023	    -15.66902384	     -7.49999987	     70.95667879	    -11.05832150	      4.88853429	     74.80967445	      1.30567513	     22.09358912	    -11.19807650	     -7.49999987	    -24.30544384	     -5.52135861	      3.97506551	     24.74378651	    -13.67933021	     10.62083146	     74.21470636	     81.86594936	     26.43384224	    -17.77430146	     13.54461134	     72.03859629	     92.07859813
      2.58333330	    -18.76600953	     -2.42131832	     -2.42592784	      1.52097617	      0.78213106	      0.13960919	     70.55949158	     -1.72943526	      4.86559198	     78.57537753	      1.37139905	     24.85812805	    -14.06421507	     -7.49999987	     75.88260442	    -11.01300895	      5.22808739	     79.46267031	      1.38688523	     24.37026457	    -11.11951806	     -7.49999987	    -25.64138747	     -5.83239482	      4.72994164	     32.64870324	    -13.84427729	     11.54552106	     81.80483233	     95.41776908	     37.61713849	    -16.62373161	     21.09802622	     74.22923638	     91.64706749
